<svg id="blue_player_nb_10" width="61" height="61" viewBox="0 0 61 61" fill="none" xmlns="http://www.w3.org/2000/svg">
<circle cx="30.5" cy="30.5" r="30.5" fill="#1A67DA"/>
<path d="M24.543 39H22.3633V24.5508L17.9922 26.1562V24.1875L24.2031 21.8555H24.543V39ZM41.5938 31.7227C41.5938 34.2617 41.1602 36.1484 40.293 37.3828C39.4258 38.6172 38.0703 39.2344 36.2266 39.2344C34.4062 39.2344 33.0586 38.6328 32.1836 37.4297C31.3086 36.2188 30.8555 34.4141 30.8242 32.0156V29.1211C30.8242 26.6133 31.2578 24.75 32.125 23.5312C32.9922 22.3125 34.3516 21.7031 36.2031 21.7031C38.0391 21.7031 39.3906 22.293 40.2578 23.4727C41.125 24.6445 41.5703 26.457 41.5938 28.9102V31.7227ZM39.4258 28.7578C39.4258 26.9219 39.168 25.5859 38.6523 24.75C38.1367 23.9062 37.3203 23.4844 36.2031 23.4844C35.0938 23.4844 34.2852 23.9023 33.7773 24.7383C33.2695 25.5742 33.0078 26.8594 32.9922 28.5938V32.0625C32.9922 33.9062 33.2578 35.2695 33.7891 36.1523C34.3281 37.0273 35.1406 37.4648 36.2266 37.4648C37.2969 37.4648 38.0898 37.0508 38.6055 36.2227C39.1289 35.3945 39.4023 34.0898 39.4258 32.3086V28.7578Z" fill="black"/>
</svg>
